<svg width="40" height="41" viewBox="0 0 40 41" fill="none" xmlns="http://www.w3.org/2000/svg">
<path d="M39.5 20.7865C39.4999 31.4389 30.7743 40.0834 20 40.0834C9.22566 40.0834 0.500071 31.4389 0.499999 20.7865C0.5 10.134 9.22562 1.48962 20 1.48962C30.7744 1.48962 39.5 10.134 39.5 20.7865Z" stroke="#F9A82F"/>
<path d="M35.5 20.7859C35.5 29.2517 28.5652 36.1238 20 36.1238C11.4348 36.1238 4.5 29.2517 4.5 20.7859C4.50026 12.3203 11.4349 5.44897 20 5.44897C28.5651 5.44897 35.4997 12.3203 35.5 20.7859Z" stroke="#F9A82F"/>
<path d="M39 20.7864L32.1389 20.7864L32.1389 23.7559L32.1389 17.8169M0.999999 20.7864L7.86111 20.7864M7.86111 23.7559L7.86111 17.8169" stroke="#F9A82F"/>
<ellipse cx="25" cy="20.7864" rx="2.96951" ry="3" transform="rotate(90 25 20.7864)" fill="#F9A82F"/>
<ellipse cx="15" cy="20.7864" rx="2.96951" ry="3" transform="rotate(90 15 20.7864)" fill="#F9A82F"/>
</svg>
